<svg width="132" height="42" viewBox="0 0 132 42" fill="none" xmlns="http://www.w3.org/2000/svg">
<g clip-path="url(#clip0_19_152)">
<path d="M8.91754 10.5948C11.2392 10.5948 13.1917 11.3683 14.7751 12.9541C16.3585 14.5399 17.1648 16.4274 17.1648 18.6845C17.1648 20.9416 16.3585 22.829 14.7751 24.4149C13.1917 26.0007 11.2392 26.7741 8.91754 26.7741H5.38161V34.1876H0V10.5948H8.91754ZM8.91754 21.7199C10.5689 21.7199 11.7783 20.4065 11.7783 18.6845C11.7783 16.9625 10.5689 15.6491 8.91754 15.6491H5.38161V21.7151H8.91754V21.7199Z" fill="#203C6E"/>
<path d="M23.7267 20.3336C24.3678 18.1786 26.4855 16.9965 28.7732 16.9965V22.7269C27.5298 22.5226 26.3835 22.7269 25.3052 23.369C24.261 23.9771 23.7218 25.0521 23.7218 26.5698V34.1876H18.6754V17.337H23.7218V20.3384L23.7267 20.3336Z" fill="#203C6E"/>
<path d="M40.5515 34.6595C38.0598 34.6595 35.9421 33.8179 34.2228 32.1007C32.5082 30.3836 31.6291 28.2578 31.6291 25.7623C31.6291 23.2668 32.5034 21.18 34.2228 19.4579C35.9373 17.7408 38.0598 16.8603 40.5515 16.8603C43.0432 16.8603 45.1608 17.7359 46.8802 19.4579C48.5948 21.1751 49.4739 23.2668 49.4739 25.7623C49.4739 28.2578 48.5996 30.3787 46.8802 32.1007C45.1608 33.8228 43.0432 34.6595 40.5515 34.6595ZM40.5515 29.7366C41.6637 29.7366 42.572 29.3669 43.3103 28.6226C44.0486 27.8832 44.4226 26.9395 44.4226 25.7574C44.4226 24.5754 44.0534 23.6317 43.3103 22.8923C42.572 22.1529 41.6589 21.7783 40.5515 21.7783C39.4441 21.7783 38.531 22.148 37.7927 22.8923C37.0544 23.6317 36.6804 24.5754 36.6804 25.7574C36.6804 26.9395 37.0496 27.8832 37.7927 28.6226C38.531 29.362 39.4441 29.7366 40.5515 29.7366Z" fill="#203C6E"/>
<path d="M67.1244 19.4579C68.7078 21.1751 69.4801 23.2668 69.4801 25.7623C69.4801 28.2578 68.7078 30.3787 67.1244 32.1008C65.541 33.8179 63.6565 34.6595 61.4368 34.6595C59.2171 34.6595 57.5997 33.9833 56.4243 32.6018V40.9298H51.3779V17.337H56.4243V18.9229C57.6046 17.5413 59.2851 16.8652 61.4368 16.8652C63.5885 16.8652 65.541 17.7408 67.1244 19.4628V19.4579ZM60.4266 29.8728C61.602 29.8728 62.5442 29.5031 63.2874 28.7589C64.0596 28.0194 64.4336 27.0076 64.4336 25.7575C64.4336 24.5073 64.0645 23.5003 63.2874 22.7561C62.5491 22.0167 61.6068 21.6421 60.4266 21.6421C59.2463 21.6421 58.304 22.0118 57.5317 22.7561C56.7935 23.4955 56.4195 24.5073 56.4195 25.7575C56.4195 27.0076 56.7886 28.0146 57.5317 28.7589C58.304 29.4983 59.2463 29.8728 60.4266 29.8728Z" fill="#203C6E"/>
<path d="M72.4818 14.9778C71.3015 13.7665 71.3015 11.8791 72.4818 10.697C73.6912 9.48576 75.5757 9.48576 76.756 10.697C77.9654 11.8791 77.9654 13.7665 76.756 14.9778C75.5757 16.1598 73.6912 16.1598 72.4818 14.9778Z" fill="#FED400"/>
<path d="M77.159 17.337H72.1125V34.1876H77.159V17.337Z" fill="#203C6E"/>
<path d="M93.2116 17.337H98.127V33.3461C98.127 36.0069 97.2527 37.9965 95.5333 39.344C93.8188 40.7255 91.6962 41.4017 89.2386 41.4017C85.4355 41.4017 82.7787 40.0542 81.2633 37.3252L85.5715 34.8297C86.3438 36.2453 87.626 36.9555 89.4086 36.9555C91.7982 36.9555 93.2116 35.6762 93.2116 33.3509V31.7992C92.0314 33.2488 90.4188 33.9882 88.2963 33.9882C85.9406 33.9882 83.9541 33.1466 82.3756 31.4927C80.7922 29.8096 80.0199 27.786 80.0199 25.4267C80.0199 23.0674 80.7922 21.0438 82.3756 19.3947C83.959 17.7116 85.9406 16.8652 88.2963 16.8652C90.4188 16.8652 92.0314 17.6046 93.2116 19.0542V17.337ZM89.1414 29.3377C90.3217 29.3377 91.2931 28.968 92.0702 28.2578C92.8425 27.5476 93.2165 26.6087 93.2165 25.4267C93.2165 24.2446 92.8474 23.3009 92.0702 22.5955C91.298 21.8853 90.3217 21.5156 89.1414 21.5156C87.9612 21.5156 86.9898 21.8853 86.2126 22.5955C85.4404 23.3009 85.0664 24.2446 85.0664 25.4267C85.0664 26.6087 85.4355 27.5476 86.2126 28.2578C86.9849 28.968 87.9612 29.3377 89.1414 29.3377Z" fill="#203C6E"/>
<path d="M129.358 20.8249C129.397 19.312 129.683 17.8089 130.145 16.3641C130.436 15.4593 130.616 14.2967 129.712 14.1605C128.493 13.9805 125.749 15.9847 124.739 16.763C122.505 15.5274 119.891 14.8318 117.094 14.8318C114.296 14.8318 111.698 15.5226 109.463 16.7533C108.443 15.9701 105.714 13.9757 104.499 14.1557C103.596 14.2919 103.776 15.4496 104.067 16.3593C104.524 17.7943 104.81 19.2828 104.854 20.786C103.173 23.082 102.183 25.918 102.183 29.0848C102.183 37.3301 108.856 41.9951 117.089 41.9951C125.322 41.9951 131.995 37.3301 131.995 29.0848C131.995 25.9326 131.019 23.1063 129.353 20.82L129.358 20.8249ZM123.733 19.2196L123.238 21.1751C119.221 20.1584 114.942 20.1682 110.95 21.1897L110.449 19.2342C114.767 18.1299 119.391 18.1202 123.733 19.2147V19.2196ZM117.264 38.7748C117.201 38.77 117.021 38.7651 117.021 38.7651C117.021 38.7651 116.987 38.7651 116.924 38.7748C109.93 38.8186 106.69 35.1848 110.517 29.0361C112.072 26.278 114.306 24.9645 115.709 24.3759C116.555 24.0208 117.492 24.0208 118.342 24.3614C119.789 24.9451 122.106 26.2585 123.67 29.0361C127.498 35.1848 124.258 38.8137 117.264 38.7748Z" fill="#203C6E"/>
<path d="M118.585 28.9097C117.881 29.2648 118.007 30.9382 118.867 32.6456C119.726 34.3579 120.989 35.4573 121.693 35.1022C122.398 34.747 122.271 33.0737 121.412 31.3662C120.552 29.6539 119.289 28.5546 118.585 28.9097Z" fill="#203C6E"/>
<path d="M115.297 28.9096C114.592 28.5545 113.33 29.6588 112.47 31.3662C111.61 33.0785 111.484 34.7519 112.188 35.1021C112.892 35.4572 114.155 34.353 115.015 32.6456C115.875 30.9333 116.001 29.2599 115.297 28.9096Z" fill="#203C6E"/>
<path d="M117.113 12.2585C120.493 12.2585 123.233 9.51435 123.233 6.12926C123.233 2.74416 120.493 0 117.113 0C113.733 0 110.993 2.74416 110.993 6.12926C110.993 9.51435 113.733 12.2585 117.113 12.2585Z" fill="#FED400"/>
</g>
<defs>
<clipPath id="clip0_19_152">
<rect width="132" height="41.9951" fill="white"/>
</clipPath>
</defs>
</svg>
